<svg width="46" height="46" viewBox="0 0 46 46" fill="none" xmlns="http://www.w3.org/2000/svg">
<rect x="-0.000976562" width="46" height="46" rx="10" fill="#F6AE24"/>
<path d="M10.1658 16C10.8104 16 11.3325 15.4779 11.3325 14.8333V11.3333H14.8325C15.4771 11.3333 15.9991 10.8112 15.9991 10.1667C15.9991 9.52208 15.4771 9 14.8325 9H11.3325C10.0433 9 8.99915 10.0442 8.99915 11.3333V14.8333C8.99915 15.4779 9.52123 16 10.1658 16Z" fill="white"/>
<path d="M11.3325 37H14.8325C15.4771 37 15.9991 36.4779 15.9991 35.8333C15.9991 35.1887 15.4771 34.6667 14.8325 34.6667H11.3325V31.1667C11.3325 30.5221 10.8104 30 10.1658 30C9.52123 30 8.99915 30.5221 8.99915 31.1667V34.6667C8.99915 35.9558 10.0433 37 11.3325 37Z" fill="white"/>
<path d="M36.9991 34.6667V31.1667C36.9991 30.5221 36.4771 30 35.8325 30C35.1879 30 34.6658 30.5221 34.6658 31.1667V34.6667H31.1658C30.5212 34.6667 29.9991 35.1887 29.9991 35.8333C29.9991 36.4779 30.5212 37 31.1658 37H34.6658C35.955 37 36.9991 35.9558 36.9991 34.6667Z" fill="white"/>
<path d="M31.1658 9C30.5212 9 29.9991 9.52208 29.9991 10.1667C29.9991 10.8112 30.5212 11.3333 31.1658 11.3333H34.6658V14.8333C34.6658 15.4779 35.1879 16 35.8325 16C36.4771 16 36.9991 15.4779 36.9991 14.8333V11.3333C36.9991 10.0442 35.955 9 34.6658 9H31.1658Z" fill="white"/>
<path d="M15.9991 28.8333C15.9991 29.4779 16.5212 30 17.1658 30C17.8104 30 18.3325 29.4779 18.3325 28.8333C18.3325 26.255 20.4208 24.1667 22.9991 24.1667C25.5775 24.1667 27.6658 26.255 27.6658 28.8333C27.6658 29.4779 28.1879 30 28.8325 30C29.4771 30 29.9991 29.4779 29.9991 28.8333C29.9991 26.2842 28.6079 23.9362 26.3737 22.7083C28.1529 20.8446 28.0858 17.89 26.2221 16.1108C24.3583 14.3317 21.4037 14.3987 19.6246 16.2625C17.9008 18.065 17.9008 20.9058 19.6246 22.7083C17.3904 23.9362 16.0021 26.2842 15.9991 28.8333ZM20.6658 19.5C20.6658 18.2108 21.71 17.1667 22.9991 17.1667C24.2883 17.1667 25.3325 18.2108 25.3325 19.5C25.3325 20.7892 24.2883 21.8333 22.9991 21.8333C21.71 21.8333 20.6658 20.7892 20.6658 19.5Z" fill="white"/>
</svg>
